<?xml version="1.0" standalone="no"?>
<!DOCTYPE svg PUBLIC "-//W3C//DTD SVG 20010904//EN"
 "http://www.w3.org/TR/2001/REC-SVG-20010904/DTD/svg10.dtd">
<svg version="1.0" xmlns="http://www.w3.org/2000/svg"
 width="397.000000pt" height="127.000000pt" viewBox="0 0 397.000000 127.000000"
 preserveAspectRatio="xMidYMid meet">

<g transform="translate(0.000000,127.000000) scale(0.100000,-0.100000)"
fill="#000000" stroke="none">
<path d="M27 1035 c17 -7 39 -25 49 -40 9 -14 72 -150 139 -302 67 -152 126
-278 131 -280 5 -1 49 88 98 200 162 366 181 404 212 421 28 15 25 15 -71 14
-55 -1 -88 -3 -73 -5 15 -2 34 -14 42 -25 13 -18 13 -26 -3 -67 -28 -71 -162
-365 -170 -374 -9 -9 -137 264 -173 367 -25 73 -22 83 34 96 21 5 -16 8 -107
9 -127 0 -137 -1 -108 -14z"/>
<path d="M2533 861 c-104 -26 -173 -136 -160 -258 11 -110 79 -183 169 -183
67 0 113 24 154 79 39 54 46 92 8 43 -92 -117 -238 -61 -260 99 -14 98 47 199
120 199 38 0 58 -20 70 -72 6 -28 33 -43 59 -32 40 15 27 83 -20 107 -37 19
-101 27 -140 18z"/>
<path d="M733 841 c-130 -60 -150 -308 -31 -393 27 -19 46 -23 105 -23 81 0
106 13 161 84 46 61 39 78 -12 27 -46 -47 -87 -62 -141 -52 -70 13 -124 89
-125 174 l0 42 145 0 c144 0 145 0 145 23 0 37 -43 101 -80 119 -45 23 -114
22 -167 -1z m110 -12 c28 -12 57 -58 57 -88 0 -20 -5 -21 -105 -21 -58 0 -105
4 -105 9 0 29 27 76 54 92 35 21 64 24 99 8z"/>
<path d="M1125 836 c-66 -22 -71 -30 -20 -38 19 -3 20 -12 23 -162 3 -171 -2
-189 -52 -199 -11 -2 33 -4 99 -5 81 0 109 3 86 8 -18 4 -37 14 -42 22 -5 7
-9 74 -9 149 0 123 2 139 21 163 21 27 57 34 76 15 6 -6 21 -9 34 -7 19 2 24
9 24 32 0 60 -65 60 -122 0 l-33 -35 0 40 c0 23 -3 41 -7 40 -5 0 -39 -11 -78
-23z"/>
<path d="M1472 835 c-60 -21 -62 -23 -35 -30 15 -3 31 -12 35 -18 4 -7 8 -77
8 -157 0 -157 -7 -184 -53 -193 -12 -2 28 -5 88 -5 77 0 101 2 81 8 -16 5 -33
15 -37 22 -5 7 -9 78 -9 158 l0 145 33 23 c37 25 94 29 121 9 24 -18 35 -81
35 -202 1 -111 -10 -145 -49 -156 -14 -4 22 -7 80 -7 58 0 96 3 85 5 -42 11
-45 20 -45 167 -1 161 -10 213 -42 240 -33 26 -114 18 -167 -17 -22 -15 -43
-27 -46 -27 -3 0 -5 14 -5 30 0 17 -3 29 -7 29 -5 -1 -36 -12 -71 -24z"/>
<path d="M2013 841 c-47 -22 -67 -52 -59 -88 6 -20 12 -24 39 -21 30 3 32 6
35 43 4 49 23 65 79 65 55 0 76 -28 71 -95 l-3 -46 -84 -33 c-108 -44 -151
-84 -151 -142 0 -56 7 -72 41 -89 41 -22 88 -18 148 11 28 15 53 25 54 23 1
-2 7 -13 13 -24 17 -31 65 -31 103 1 33 28 36 43 4 26 -12 -7 -25 -7 -36 -1
-15 9 -17 28 -17 157 0 97 -5 155 -13 172 -28 57 -142 78 -224 41z m167 -250
c0 -87 -1 -90 -29 -110 -42 -30 -94 -28 -120 5 -45 57 -13 121 84 168 28 14
53 25 58 25 4 1 7 -39 7 -88z"/>
<path d="M2883 849 c-33 -10 -83 -60 -83 -84 0 -8 10 -21 22 -29 31 -22 58 -5
58 38 0 43 26 66 77 66 56 0 73 -22 73 -93 0 -44 -3 -57 -15 -57 -35 0 -150
-56 -186 -90 -33 -32 -39 -43 -39 -79 0 -34 6 -49 29 -72 39 -38 96 -40 165
-3 26 14 49 24 51 22 1 -2 8 -13 14 -25 15 -29 54 -30 99 -3 38 23 44 44 9 31
-13 -5 -28 -6 -34 -3 -6 4 -12 69 -15 158 -4 170 -13 195 -73 220 -38 16 -103
17 -152 3z m122 -366 c-44 -39 -106 -30 -131 19 -31 60 4 111 106 157 l45 20
3 -87 c3 -83 2 -88 -23 -109z"/>
<path d="M3283 837 c-68 -22 -81 -37 -34 -37 17 0 31 -6 35 -16 3 -9 6 -82 6
-163 0 -158 -4 -171 -55 -184 -11 -2 34 -5 100 -5 81 0 109 3 86 8 -18 4 -37
14 -42 22 -5 7 -9 74 -9 149 0 123 2 139 21 163 21 27 57 34 76 15 19 -19 58
-6 61 19 9 60 -54 69 -116 16 l-42 -36 0 36 c0 42 -2 42 -87 13z"/>
<path d="M3689 837 c-95 -50 -135 -208 -80 -319 30 -62 70 -90 136 -96 70 -6
116 11 159 58 33 37 72 100 62 100 -3 0 -25 -20 -50 -44 -34 -35 -54 -46 -89
-51 -91 -14 -163 52 -174 159 l-6 56 148 0 148 0 -6 35 c-7 44 -40 91 -77 110
-44 23 -119 19 -171 -8z m120 -12 c31 -15 57 -65 47 -90 -4 -12 -25 -15 -106
-15 -66 0 -100 4 -100 11 0 26 35 81 59 94 34 18 65 19 100 0z"/>
<path d="M370 165 c0 -57 4 -95 10 -95 6 0 10 38 10 95 0 57 -4 95 -10 95 -6
0 -10 -38 -10 -95z"/>
<path d="M1837 253 c-4 -3 -7 -17 -7 -30 0 -14 -4 -21 -10 -18 -5 3 -10 1 -10
-4 0 -6 5 -11 10 -11 6 0 10 -27 10 -60 0 -33 4 -60 10 -60 6 0 10 27 10 60 0
50 3 60 18 60 16 1 16 1 0 14 -10 7 -18 17 -18 21 0 4 8 14 18 21 16 12 16 13
-4 14 -11 0 -24 -3 -27 -7z"/>
<path d="M2360 165 c0 -57 4 -95 10 -95 6 0 10 19 10 43 0 54 18 80 51 75 22
-3 24 -8 27 -60 2 -32 7 -58 12 -58 14 0 12 114 -2 128 -15 15 -54 16 -63 2
-13 -21 -25 -9 -25 25 0 19 -4 35 -10 35 -6 0 -10 -38 -10 -95z"/>
<path d="M2930 165 c0 -57 4 -95 10 -95 6 0 10 38 10 95 0 57 -4 95 -10 95 -6
0 -10 -38 -10 -95z"/>
<path d="M3150 165 c0 -103 17 -132 22 -38 3 57 3 58 36 61 l32 3 0 -60 c0
-34 4 -61 10 -61 14 0 12 114 -2 128 -15 15 -51 15 -66 0 -9 -9 -12 -4 -12 25
0 20 -4 37 -10 37 -6 0 -10 -38 -10 -95z"/>
<path d="M3040 231 c0 -11 -6 -22 -12 -25 -10 -5 -10 -7 0 -12 7 -4 12 -27 12
-65 0 -55 2 -59 23 -58 12 0 16 3 10 6 -16 6 -18 113 -3 113 6 0 10 5 10 11 0
5 -4 7 -10 4 -6 -4 -10 5 -10 19 0 14 -4 26 -10 26 -5 0 -10 -9 -10 -19z"/>
<path d="M197 192 c-24 -26 -22 -87 3 -112 26 -26 55 -25 81 1 25 25 17 39 -9
16 -36 -33 -72 -14 -72 38 0 17 5 36 12 43 18 18 56 15 67 -5 5 -10 13 -15 17
-10 13 12 -28 47 -56 47 -15 0 -34 -8 -43 -18z"/>
<path d="M480 190 c-41 -41 -14 -130 39 -130 23 0 69 35 59 45 -4 4 -14 0 -23
-9 -19 -19 -46 -21 -63 -4 -26 26 -13 38 38 38 46 0 50 2 50 24 0 52 -62 74
-100 36z m78 -22 c3 -15 -4 -18 -37 -18 -43 0 -50 7 -29 28 18 18 62 11 66
-10z"/>
<path d="M665 194 c-9 -9 -13 -19 -10 -22 3 -3 11 0 17 6 20 20 68 15 68 -6 0
-13 -12 -21 -42 -28 -36 -7 -44 -13 -46 -35 -4 -37 20 -54 57 -41 16 6 40 9
53 6 13 -2 17 -2 11 2 -8 3 -13 26 -13 58 0 29 -5 57 -12 64 -17 17 -64 15
-83 -4z m75 -72 c0 -25 -19 -42 -48 -42 -33 0 -27 41 8 51 38 11 40 10 40 -9z"/>
<path d="M840 140 c0 -40 4 -70 10 -70 6 0 10 22 10 48 0 53 12 72 46 72 26 0
34 -17 34 -78 0 -29 3 -43 10 -36 5 5 6 35 3 67 -5 49 -9 58 -28 63 -13 3 -33
1 -44 -6 -14 -7 -21 -7 -21 0 0 5 -4 10 -10 10 -6 0 -10 -30 -10 -70z"/>
<path d="M1046 188 c-51 -72 25 -167 85 -107 25 25 17 39 -9 16 -22 -20 -43
-22 -60 -5 -26 26 -13 38 38 38 46 0 50 2 50 23 0 53 -75 77 -104 35z m82 -20
c3 -15 -4 -18 -37 -18 -39 0 -53 14 -34 34 14 14 68 1 71 -16z"/>
<path d="M1220 140 c0 -81 18 -95 22 -17 2 43 7 54 26 62 12 5 22 13 22 17 0
11 -8 10 -31 -2 -13 -7 -19 -7 -19 0 0 5 -4 10 -10 10 -6 0 -10 -30 -10 -70z"/>
<path d="M1472 198 c-21 -21 -14 -48 16 -59 66 -27 78 -44 37 -55 -18 -4 -32
-1 -45 11 -18 16 -20 16 -20 2 0 -41 79 -46 100 -6 14 26 -1 46 -44 57 -42 11
-48 42 -8 42 17 0 32 -6 35 -12 2 -7 8 -10 12 -6 13 13 -16 38 -44 38 -15 0
-32 -5 -39 -12z"/>
<path d="M1650 195 c-7 -9 -10 -19 -6 -22 4 -4 11 -2 15 6 11 17 66 10 66 -8
0 -9 -18 -19 -45 -25 -38 -9 -45 -15 -48 -38 -4 -34 29 -55 63 -40 13 6 34 8
46 5 20 -5 22 -3 12 8 -7 7 -13 36 -13 65 0 38 -4 53 -16 58 -28 11 -61 6 -74
-9z m77 -72 c6 -17 -28 -44 -51 -41 -30 4 -28 40 4 49 30 8 43 6 47 -8z"/>
<path d="M1946 188 c-34 -48 -7 -128 43 -128 23 0 69 36 59 46 -5 4 -16 0 -26
-9 -22 -20 -43 -22 -60 -5 -26 26 -13 38 38 38 46 0 50 2 50 23 0 53 -75 77
-104 35z m82 -20 c3 -15 -4 -18 -37 -18 -44 0 -44 0 -35 25 9 22 68 17 72 -7z"/>
<path d="M2127 204 c-11 -11 -8 -134 3 -134 6 0 10 20 10 44 0 43 14 69 42 79
7 2 10 7 6 11 -3 4 -15 3 -26 -3 -14 -8 -21 -8 -24 0 -2 6 -7 7 -11 3z"/>
<path d="M2577 197 c-10 -6 -20 -29 -23 -49 -5 -30 -2 -41 19 -62 15 -14 33
-26 40 -26 21 0 63 37 54 47 -5 4 -13 0 -18 -10 -13 -23 -56 -22 -69 2 -15 30
-14 31 46 31 47 0 55 3 50 16 -3 9 -6 19 -6 24 0 17 -32 40 -54 40 -12 0 -30
-6 -39 -13z m74 -28 c9 -17 6 -19 -36 -19 -49 0 -57 11 -24 34 25 17 45 12 60
-15z"/>
<path d="M2755 194 c-9 -9 -13 -19 -10 -22 3 -3 11 0 17 6 20 20 68 15 68 -6
0 -13 -12 -21 -42 -28 -36 -8 -43 -13 -46 -36 -4 -34 29 -55 63 -40 13 6 34 9
46 6 13 -2 18 -2 12 2 -8 3 -13 26 -13 58 0 29 -5 57 -12 64 -17 17 -64 15
-83 -4z m75 -73 c0 -24 -24 -44 -47 -39 -27 5 -22 41 7 49 38 11 40 10 40 -10z"/>
<path d="M3363 202 c-36 -23 -35 -104 2 -128 27 -17 71 -10 80 13 8 23 -5 31
-16 10 -26 -46 -89 7 -72 60 12 35 58 44 78 16 7 -10 16 -15 20 -11 4 3 -3 16
-14 27 -21 21 -56 27 -78 13z"/>
<path d="M3535 194 c-19 -20 -12 -32 9 -15 20 16 60 10 64 -10 2 -10 -10 -18
-40 -25 -36 -8 -43 -13 -46 -36 -4 -34 27 -54 58 -38 13 7 26 7 38 1 17 -9 18
-5 14 52 -2 34 -9 68 -14 75 -15 17 -64 15 -83 -4z m75 -72 c0 -24 -19 -42
-46 -42 -44 0 -36 41 11 53 34 8 35 8 35 -11z"/>
<path d="M3710 140 c0 -40 4 -70 10 -70 6 0 10 22 10 49 0 40 4 53 22 65 12 9
19 19 15 22 -4 4 -13 1 -22 -6 -10 -8 -15 -9 -15 -1 0 6 -4 11 -10 11 -6 0
-10 -30 -10 -70z"/>
<path d="M3855 196 c-29 -21 -27 -92 4 -117 13 -10 29 -19 36 -19 20 0 61 37
52 47 -5 4 -13 0 -18 -10 -13 -23 -56 -22 -69 2 -15 30 -14 31 45 31 55 0 55
0 49 28 -11 49 -59 67 -99 38z m76 -27 c9 -17 6 -19 -36 -19 -49 0 -57 11 -24
34 25 17 45 12 60 -15z"/>
</g>
</svg>
