<?xml version="1.0" encoding="utf-8"?>
<!-- Generator: Adobe Illustrator 25.4.1, SVG Export Plug-In . SVG Version: 6.00 Build 0)  -->
<svg version="1.1" id="Capa_1" xmlns="http://www.w3.org/2000/svg" xmlns:xlink="http://www.w3.org/1999/xlink" x="0px" y="0px"
     viewBox="0 0 286.77 163.52" style="enable-background:new 0 0 286.77 163.52;" xml:space="preserve">
<style type="text/css">
    .st0{fill:#3B7588;}
    .st1{fill:#0A9A80;}
    .st2{opacity:0.5;fill:#22596E;}
    .st3{fill:#22596E;}
    .st4{fill:#5A5959;}
    .st5{fill:#3F738D;}
    .st6{fill:#185A7D;}
    .st7{fill:#00827E;}
    .st8{fill:#009877;}
    .st9{fill:#54565A;}
    .st10{fill:none;stroke:#5A5959;stroke-width:0.5;stroke-miterlimit:10;}
</style>
<g>
    <g>
        <g>
            <polygon class="st0" points="114.31,7.56 78.57,7.56 7.71,155.97 45.12,155.97 55.37,134.65 121.36,134.65 107.42,105.17 
                69.58,105.17 96.95,47.7 147.55,155.97 184.96,155.97             "/>
            <path class="st1" d="M168.82,123.94l14.94,31.48c0.32,0.68,1.27,0.75,1.68,0.12l57.58-87.83V7.16L168.82,123.94z"/>
            <path class="st2" d="M168.82,123.94l14.94,31.48c0.32,0.68,1.27,0.75,1.68,0.12l57.58-87.83V7.16L168.82,123.94z"/>
            <polygon class="st1" points="243.03,156.39 279.07,156.39 279.07,7.14 243.03,7.14 243.02,7.16 243.02,67.71 243.03,67.69          "/>
            <path class="st3" d="M147.64,155.97h37.32L114.31,7.56H78.57C78.57,7.56,146.18,156.65,147.64,155.97z"/>
        </g>
    </g>
</g>
</svg>
