<?xml version="1.0" encoding="utf-8"?>
<!-- Generator: Adobe Illustrator 25.4.1, SVG Export Plug-In . SVG Version: 6.00 Build 0)  -->
<svg version="1.1" id="Capa_1" xmlns="http://www.w3.org/2000/svg" xmlns:xlink="http://www.w3.org/1999/xlink" x="0px" y="0px"
	 viewBox="0 0 792 190.93" style="enable-background:new 0 0 792 190.93;" xml:space="preserve">
<style type="text/css">
	.st0{fill:#3B7588;}
	.st1{fill:#0A9A80;}
	.st2{opacity:0.5;fill:#22596E;}
	.st3{fill:#22596E;}
	.st4{fill:#5A5959;}
	.st5{fill:#3F738D;}
	.st6{fill:#185A7D;}
	.st7{fill:#00827E;}
	.st8{fill:#009877;}
	.st9{fill:#54565A;}
	.st10{fill:none;stroke:#5A5959;stroke-width:0.5;stroke-miterlimit:10;}
</style>
<g>
	<g>
		<path class="st4" d="M112.11,147.17h1.28c0,1.58,1.37,2.79,3.12,2.79c1.75,0,3.08-1.08,3.08-2.52s-1.2-2.37-3.39-2.87
			c-2.37-0.52-3.85-1.75-3.85-3.77c0-1.98,1.77-3.5,4.14-3.5c2.37,0,4.14,1.6,4.14,3.71h-1.28c0-1.5-1.22-2.63-2.85-2.63
			c-1.61,0-2.83,1.02-2.83,2.39c0,1.37,1.06,2.27,3.12,2.75c2.51,0.58,4.1,1.75,4.1,3.87c0,2.08-1.88,3.65-4.38,3.65
			C114.01,151.04,112.11,149.36,112.11,147.17z"/>
		<path class="st4" d="M124.83,145.9c0-2.92,2.37-5.14,5.51-5.14c3.12,0,5.48,2.21,5.48,5.14c0,2.92-2.37,5.14-5.48,5.14
			C127.2,151.04,124.83,148.82,124.83,145.9z M134.6,145.9c0-2.31-1.81-4.06-4.26-4.06c-2.45,0-4.28,1.75-4.28,4.06
			c0,2.31,1.83,4.06,4.28,4.06C132.79,149.96,134.6,148.21,134.6,145.9z"/>
		<path class="st4" d="M140.41,136.95h1.18v13.85h-1.18V136.95z"/>
		<path class="st4" d="M155.97,140.99v9.81h-1.18v-1.83c-0.73,1.31-2.1,2.06-3.85,2.06c-2.51,0-4.18-1.56-4.18-3.94v-6.1h1.18v5.79
			c0,1.9,1.32,3.17,3.34,3.17c2.1,0,3.51-1.29,3.51-3.21v-5.75H155.97z"/>
		<path class="st4" d="M160.56,145.9c0-2.92,2.37-5.14,5.51-5.14c2.75,0,4.93,1.73,5.38,4.14h-1.22c-0.47-1.79-2.1-3.06-4.16-3.06
			c-2.45,0-4.28,1.75-4.28,4.06c0,2.31,1.83,4.06,4.28,4.06c2.06,0,3.69-1.27,4.16-3.06h1.22c-0.45,2.4-2.63,4.14-5.38,4.14
			C162.92,151.04,160.56,148.82,160.56,145.9z"/>
		<path class="st4" d="M175.71,137.88c0-0.44,0.39-0.79,0.86-0.79c0.49,0,0.88,0.35,0.88,0.79c0,0.46-0.39,0.81-0.88,0.81
			C176.09,138.69,175.71,138.34,175.71,137.88z M175.97,140.99h1.18v9.81h-1.18V140.99z"/>
		<path class="st4" d="M181.76,145.9c0-2.92,2.37-5.14,5.51-5.14c3.12,0,5.48,2.21,5.48,5.14c0,2.92-2.37,5.14-5.48,5.14
			C184.13,151.04,181.76,148.82,181.76,145.9z M191.53,145.9c0-2.31-1.81-4.06-4.26-4.06c-2.45,0-4.28,1.75-4.28,4.06
			c0,2.31,1.83,4.06,4.28,4.06C189.71,149.96,191.53,148.21,191.53,145.9z"/>
		<path class="st4" d="M206.92,144.86v5.94h-1.18v-5.62c0-2.02-1.41-3.35-3.53-3.35c-2.2,0-3.69,1.35-3.69,3.39v5.58h-1.18v-9.81
			h1.18v1.92c0.75-1.37,2.18-2.15,4.04-2.15C205.17,140.76,206.92,142.38,206.92,144.86z"/>
		<path class="st4" d="M222.34,146.36h-9.71c0.22,2.14,1.96,3.64,4.24,3.64c1.88,0,3.39-0.96,3.98-2.39h1.3
			c-0.73,2.04-2.75,3.42-5.28,3.42c-3.12,0-5.48-2.21-5.48-5.14c0-2.92,2.37-5.14,5.48-5.14c3.14,0,5.51,2.21,5.51,5.14
			C222.38,146.03,222.36,146.23,222.34,146.36z M212.65,145.36h8.48c-0.24-2.08-2.02-3.56-4.26-3.56
			C214.61,141.8,212.9,143.28,212.65,145.36z"/>
		<path class="st4" d="M226.21,148.11h1.22c0,1.08,0.94,1.9,2.16,1.9c1.18,0,2.1-0.73,2.1-1.69c0-1.02-0.84-1.65-2.37-2.02
			c-1.73-0.4-2.98-1.23-2.98-2.85c0-1.62,1.43-2.69,3.22-2.69c1.84,0,3.2,1.23,3.2,2.81h-1.2c0-1-0.86-1.79-2.02-1.79
			c-1.12,0-1.98,0.71-1.98,1.62c0,0.96,0.84,1.62,2.3,1.94c1.9,0.44,3.04,1.35,3.04,2.89c0,1.67-1.45,2.81-3.34,2.81
			C227.64,151.04,226.21,149.77,226.21,148.11z"/>
		<path class="st4" d="M254.15,147.17h-7.38l-1.61,3.64h-1.37l5.93-13.27h1.51l5.93,13.27h-1.41L254.15,147.17z M253.68,146.07
			l-3.22-7.27l-3.2,7.27H253.68z"/>
		<path class="st4" d="M269.79,140.99l-4.73,9.81h-1.26l-4.73-9.81h1.37l4.02,8.52l4.02-8.52H269.79z"/>
		<path class="st4" d="M283.57,140.99v9.81h-1.18v-2.35c-0.86,1.56-2.49,2.58-4.49,2.58c-3.02,0-5.28-2.21-5.28-5.14
			c0-2.92,2.26-5.14,5.28-5.14c2,0,3.63,1.02,4.49,2.58v-2.35H283.57z M282.39,145.9c0-2.31-1.84-4.06-4.28-4.06
			c-2.43,0-4.26,1.75-4.26,4.06c0,2.31,1.84,4.06,4.26,4.06C280.55,149.96,282.39,148.21,282.39,145.9z"/>
		<path class="st4" d="M298.41,144.86v5.94h-1.18v-5.62c0-2.02-1.41-3.35-3.53-3.35c-2.2,0-3.69,1.35-3.69,3.39v5.58h-1.18v-9.81
			h1.18v1.92c0.75-1.37,2.18-2.15,4.04-2.15C296.66,140.76,298.41,142.38,298.41,144.86z"/>
		<path class="st4" d="M311.18,149.73v1.08h-8.26V150l6.44-7.92H303v-1.08h8.03v0.81l-6.44,7.92H311.18z"/>
		<path class="st4" d="M325.62,140.99v9.81h-1.18v-2.35c-0.86,1.56-2.49,2.58-4.49,2.58c-3.02,0-5.28-2.21-5.28-5.14
			c0-2.92,2.26-5.14,5.28-5.14c2,0,3.63,1.02,4.49,2.58v-2.35H325.62z M324.43,145.9c0-2.31-1.84-4.06-4.28-4.06
			c-2.43,0-4.26,1.75-4.26,4.06c0,2.31,1.84,4.06,4.26,4.06C322.6,149.96,324.43,148.21,324.43,145.9z"/>
		<path class="st4" d="M341.17,136.95v13.85h-1.18v-2.35c-0.86,1.56-2.49,2.58-4.49,2.58c-3.02,0-5.28-2.21-5.28-5.14
			c0-2.92,2.26-5.14,5.28-5.14c2,0,3.63,1.02,4.49,2.58v-6.39H341.17z M339.99,145.9c0-2.31-1.84-4.06-4.28-4.06
			c-2.43,0-4.26,1.75-4.26,4.06c0,2.31,1.84,4.06,4.26,4.06C338.15,149.96,339.99,148.21,339.99,145.9z"/>
		<path class="st4" d="M356.73,140.99v9.81h-1.18v-2.35c-0.86,1.56-2.49,2.58-4.49,2.58c-3.02,0-5.28-2.21-5.28-5.14
			c0-2.92,2.26-5.14,5.28-5.14c2,0,3.63,1.02,4.49,2.58v-2.35H356.73z M355.55,145.9c0-2.31-1.84-4.06-4.28-4.06
			c-2.43,0-4.26,1.75-4.26,4.06c0,2.31,1.84,4.06,4.26,4.06C353.71,149.96,355.55,148.21,355.55,145.9z"/>
		<path class="st4" d="M361.3,148.11h1.22c0,1.08,0.94,1.9,2.16,1.9c1.18,0,2.1-0.73,2.1-1.69c0-1.02-0.84-1.65-2.37-2.02
			c-1.73-0.4-2.98-1.23-2.98-2.85c0-1.62,1.43-2.69,3.22-2.69c1.84,0,3.2,1.23,3.2,2.81h-1.2c0-1-0.86-1.79-2.02-1.79
			c-1.12,0-1.98,0.71-1.98,1.62c0,0.96,0.84,1.62,2.3,1.94c1.9,0.44,3.04,1.35,3.04,2.89c0,1.67-1.45,2.81-3.34,2.81
			C362.72,151.04,361.3,149.77,361.3,148.11z"/>
		<path class="st4" d="M390.21,146.36h-9.71c0.22,2.14,1.96,3.64,4.24,3.64c1.88,0,3.39-0.96,3.98-2.39h1.3
			c-0.73,2.04-2.75,3.42-5.28,3.42c-3.12,0-5.48-2.21-5.48-5.14c0-2.92,2.37-5.14,5.48-5.14c3.14,0,5.51,2.21,5.51,5.14
			C390.25,146.03,390.23,146.23,390.21,146.36z M380.53,145.36h8.48c-0.24-2.08-2.02-3.56-4.26-3.56
			C382.48,141.8,380.77,143.28,380.53,145.36z"/>
		<path class="st4" d="M404.36,144.86v5.94h-1.18v-5.62c0-2.02-1.41-3.35-3.53-3.35c-2.2,0-3.69,1.35-3.69,3.39v5.58h-1.18v-9.81
			h1.18v1.92c0.75-1.37,2.18-2.15,4.04-2.15C402.61,140.76,404.36,142.38,404.36,144.86z"/>
		<path class="st4" d="M416.27,144.17c0-3.9,3.16-6.87,7.32-6.87c3.69,0,6.59,2.33,7.22,5.54h-1.33c-0.59-2.58-2.94-4.39-5.89-4.39
			c-3.43,0-6.04,2.44-6.04,5.71s2.61,5.71,6.04,5.71c2.96,0,5.3-1.81,5.89-4.39h1.33c-0.63,3.21-3.53,5.54-7.22,5.54
			C419.43,151.04,416.27,148.07,416.27,144.17z"/>
		<path class="st4" d="M434.78,145.9c0-2.92,2.37-5.14,5.51-5.14c3.12,0,5.48,2.21,5.48,5.14c0,2.92-2.37,5.14-5.48,5.14
			C437.15,151.04,434.78,148.82,434.78,145.9z M444.55,145.9c0-2.31-1.81-4.06-4.26-4.06c-2.45,0-4.28,1.75-4.28,4.06
			c0,2.31,1.83,4.06,4.28,4.06C442.73,149.96,444.55,148.21,444.55,145.9z"/>
		<path class="st4" d="M459.94,144.86v5.94h-1.18v-5.62c0-2.02-1.41-3.35-3.53-3.35c-2.2,0-3.69,1.35-3.69,3.39v5.58h-1.18v-9.81
			h1.18v1.92c0.75-1.37,2.18-2.15,4.04-2.15C458.19,140.76,459.94,142.38,459.94,144.86z"/>
		<path class="st4" d="M469.92,142.01h-2.55v8.79h-1.18v-8.79h-2.43v-1.02h2.43v-2.67l1.18-0.21v2.88h2.55V142.01z"/>
		<path class="st4" d="M479.11,140.84v1.15c-2.24,0-3.67,1.46-3.67,3.71v5.1h-1.18v-9.81h1.18v2.12
			C476.15,141.69,477.46,140.84,479.11,140.84z"/>
		<path class="st4" d="M482.05,145.9c0-2.92,2.37-5.14,5.51-5.14c3.12,0,5.48,2.21,5.48,5.14c0,2.92-2.37,5.14-5.48,5.14
			C484.41,151.04,482.05,148.82,482.05,145.9z M491.81,145.9c0-2.31-1.81-4.06-4.26-4.06c-2.45,0-4.28,1.75-4.28,4.06
			c0,2.31,1.83,4.06,4.28,4.06C490,149.96,491.81,148.21,491.81,145.9z"/>
		<path class="st4" d="M497.63,136.95h1.18v13.85h-1.18V136.95z"/>
		<path class="st4" d="M521.73,136.95v13.85h-1.18v-2.35c-0.86,1.56-2.49,2.58-4.49,2.58c-3.02,0-5.28-2.21-5.28-5.14
			c0-2.92,2.26-5.14,5.28-5.14c2,0,3.63,1.02,4.49,2.58v-6.39H521.73z M520.54,145.9c0-2.31-1.84-4.06-4.28-4.06
			c-2.43,0-4.26,1.75-4.26,4.06c0,2.31,1.84,4.06,4.26,4.06C518.71,149.96,520.54,148.21,520.54,145.9z"/>
		<path class="st4" d="M537.26,146.36h-9.71c0.22,2.14,1.96,3.64,4.24,3.64c1.88,0,3.39-0.96,3.98-2.39h1.3
			c-0.73,2.04-2.75,3.42-5.28,3.42c-3.12,0-5.48-2.21-5.48-5.14c0-2.92,2.37-5.14,5.48-5.14c3.14,0,5.51,2.21,5.51,5.14
			C537.3,146.03,537.28,146.23,537.26,146.36z M527.58,145.36h8.48c-0.24-2.08-2.02-3.56-4.26-3.56
			C529.54,141.8,527.82,143.28,527.58,145.36z"/>
		<path class="st4" d="M549.38,137.53h1.24v13.27h-1.24V137.53z"/>
		<path class="st4" d="M565.67,144.86v5.94h-1.18v-5.62c0-2.02-1.41-3.35-3.53-3.35c-2.2,0-3.69,1.35-3.69,3.39v5.58h-1.18v-9.81
			h1.18v1.92c0.75-1.37,2.18-2.15,4.04-2.15C563.91,140.76,565.67,142.38,565.67,144.86z"/>
		<path class="st4" d="M572.68,140.21v0.79h2.69v1.02h-2.69v8.79h-1.18v-8.79h-2.04v-1.02h2.04v-0.85c0-2.33,1.41-3.25,3.87-3.25
			v1.04C573.7,137.94,572.68,138.55,572.68,140.21z"/>
		<path class="st4" d="M589.32,146.36h-9.71c0.22,2.14,1.96,3.64,4.24,3.64c1.88,0,3.39-0.96,3.98-2.39h1.3
			c-0.73,2.04-2.75,3.42-5.28,3.42c-3.12,0-5.48-2.21-5.48-5.14c0-2.92,2.37-5.14,5.48-5.14c3.14,0,5.51,2.21,5.51,5.14
			C589.36,146.03,589.34,146.23,589.32,146.36z M579.63,145.36h8.48c-0.24-2.08-2.02-3.56-4.26-3.56
			C581.59,141.8,579.88,143.28,579.63,145.36z"/>
		<path class="st4" d="M593.21,145.9c0-2.92,2.37-5.14,5.51-5.14c2.75,0,4.93,1.73,5.38,4.14h-1.22c-0.47-1.79-2.1-3.06-4.16-3.06
			c-2.45,0-4.28,1.75-4.28,4.06c0,2.31,1.83,4.06,4.28,4.06c2.06,0,3.69-1.27,4.16-3.06h1.22c-0.45,2.4-2.63,4.14-5.38,4.14
			C595.58,151.04,593.21,148.82,593.21,145.9z"/>
		<path class="st4" d="M607.96,145.9c0-2.92,2.37-5.14,5.51-5.14c2.75,0,4.93,1.73,5.38,4.14h-1.22c-0.47-1.79-2.1-3.06-4.16-3.06
			c-2.45,0-4.28,1.75-4.28,4.06c0,2.31,1.83,4.06,4.28,4.06c2.06,0,3.69-1.27,4.16-3.06h1.22c-0.45,2.4-2.63,4.14-5.38,4.14
			C610.32,151.04,607.96,148.82,607.96,145.9z"/>
		<path class="st4" d="M623.11,137.88c0-0.44,0.39-0.79,0.86-0.79c0.49,0,0.88,0.35,0.88,0.79c0,0.46-0.39,0.81-0.88,0.81
			C623.49,138.69,623.11,138.34,623.11,137.88z M623.37,140.99h1.18v9.81h-1.18V140.99z"/>
		<path class="st4" d="M629.16,145.9c0-2.92,2.37-5.14,5.51-5.14c3.12,0,5.48,2.21,5.48,5.14c0,2.92-2.37,5.14-5.48,5.14
			C631.53,151.04,629.16,148.82,629.16,145.9z M638.93,145.9c0-2.31-1.81-4.06-4.26-4.06c-2.45,0-4.28,1.75-4.28,4.06
			c0,2.31,1.83,4.06,4.28,4.06C637.11,149.96,638.93,148.21,638.93,145.9z"/>
		<path class="st4" d="M654.32,144.86v5.94h-1.18v-5.62c0-2.02-1.41-3.35-3.53-3.35c-2.2,0-3.69,1.35-3.69,3.39v5.58h-1.18v-9.81
			h1.18v1.92c0.75-1.37,2.18-2.15,4.04-2.15C652.57,140.76,654.32,142.38,654.32,144.86z"/>
		<path class="st4" d="M669.74,146.36h-9.71c0.22,2.14,1.96,3.64,4.24,3.64c1.88,0,3.39-0.96,3.98-2.39h1.3
			c-0.73,2.04-2.75,3.42-5.28,3.42c-3.12,0-5.48-2.21-5.48-5.14c0-2.92,2.37-5.14,5.48-5.14c3.14,0,5.51,2.21,5.51,5.14
			C669.78,146.03,669.76,146.23,669.74,146.36z M660.05,145.36h8.48c-0.24-2.08-2.02-3.56-4.26-3.56
			C662.01,141.8,660.3,143.28,660.05,145.36z"/>
		<path class="st4" d="M673.61,148.11h1.22c0,1.08,0.94,1.9,2.16,1.9c1.18,0,2.1-0.73,2.1-1.69c0-1.02-0.84-1.65-2.37-2.02
			c-1.73-0.4-2.98-1.23-2.98-2.85c0-1.62,1.43-2.69,3.22-2.69c1.84,0,3.2,1.23,3.2,2.81h-1.2c0-1-0.86-1.79-2.02-1.79
			c-1.12,0-1.98,0.71-1.98,1.62c0,0.96,0.84,1.62,2.3,1.94c1.9,0.44,3.04,1.35,3.04,2.89c0,1.67-1.45,2.81-3.34,2.81
			C675.04,151.04,673.61,149.77,673.61,148.11z"/>
	</g>
	<g>
		<g>
			<polygon class="st0" points="320.84,48.98 304.41,48.98 271.85,117.16 289.05,117.16 293.75,107.37 324.08,107.37 317.67,93.83 
				300.28,93.83 312.86,67.42 336.11,117.16 353.3,117.16 			"/>
			<path class="st0" d="M71.12,48.98h16.42l32.46,68.19h-17.19l-4.71-9.8H60.46l-4.71,9.8H38.56L71.12,48.98z M66.99,93.83h24.59
				L79.29,68.18L66.99,93.83z"/>
			<path class="st0" d="M187.91,103.62v13.54h-59.26V49.94h16.23v53.69H187.91z"/>
			<path class="st0" d="M196.75,49.94h16.23v27.76l29.77-27.76h20.55L231.8,80l35.82,37.17H246.5l-25.45-26.99l-8.07,7.78v19.21
				h-16.23V49.94z"/>
			<path class="st1" d="M470.99,103.55v13.81h-61.82V48.78h61.13v13.81h-44.58v13.62h38.01v13.72h-38.01v13.62H470.99z"/>
			<path class="st1" d="M520.27,48.78c23.32,0.2,34.97,17.24,34.97,34.29c0,17.05-11.66,34.09-34.97,34.29h-39.28V48.78H520.27z
				 M497.54,103.55h22.24c12.25,0,18.32-10.29,18.32-20.48c0-10.29-6.07-20.57-18.32-20.57h-22.24V103.55z"/>
			<path class="st1" d="M566.02,48.78h16.56v68.58h-16.56V48.78z"/>
			<path class="st1" d="M631.96,46.53c13.72,0,25.47,5.58,32.82,15.09l-12.25,10.68c-4.41-5.58-12.34-9.9-19.89-9.9
				c-14.6,0-21.94,10.29-21.94,20.67c0,10.29,7.35,20.57,21.94,20.57c9.6,0,15.67-4.7,19.89-10.09l12.25,10.68
				c-7.54,9.31-19.3,15.38-32.92,15.38c-17.63,0-38.31-12.44-38.31-36.54C593.55,58.97,614.32,46.53,631.96,46.53z"/>
			<path class="st1" d="M703.57,47.8h16.75l33.11,69.56H735.9l-4.8-9.99h-38.4l-4.8,9.99h-17.54L703.57,47.8z M699.36,93.55h25.08
				L711.9,67.39L699.36,93.55z"/>
			<path class="st1" d="M345.88,102.45l6.86,14.46c0.15,0.31,0.58,0.34,0.77,0.05l26.46-40.35V48.79L345.88,102.45z"/>
			<path class="st2" d="M345.88,102.45l6.86,14.46c0.15,0.31,0.58,0.34,0.77,0.05l26.46-40.35V48.79L345.88,102.45z"/>
			<polygon class="st1" points="379.98,117.36 396.54,117.36 396.54,48.78 379.98,48.78 379.97,48.79 379.97,76.61 379.98,76.6 			
				"/>
			<path class="st3" d="M336.15,117.16h17.15l-32.46-68.19h-16.42C304.41,48.98,335.48,117.48,336.15,117.16z"/>
		</g>
		<path class="st1" d="M743.45,46.86c0,3.86-3.13,6.97-6.99,6.97s-6.99-3.11-6.99-6.97s3.13-6.97,6.99-6.97S743.45,43,743.45,46.86z
			 M742.93,46.86c0-3.61-2.9-6.51-6.47-6.51c-3.57,0-6.49,2.9-6.49,6.51s2.92,6.51,6.49,6.51
			C740.03,53.37,742.93,50.48,742.93,46.86z M737.71,47.58l1.62,2.86h-1.02l-1.51-2.68h-0.27h-1.22v2.68h-0.93v-7.15h2.14
			c1.8,0,2.63,1.1,2.63,2.24C739.16,46.52,738.7,47.27,737.71,47.58z M736.57,46.86c1.14,0,1.66-0.52,1.66-1.33
			c0-0.79-0.56-1.35-1.66-1.35h-1.26v2.68H736.57z"/>
	</g>
</g>
</svg>
